<svg xmlns="http://www.w3.org/2000/svg" width="1600" height="900" viewBox="0 0 1600 900" fill="none">
  <rect width="1600" height="900" fill="#f7f7f7"/>
  <rect x="0" y="0" width="260" height="900" fill="#ffffff"/>
  <rect x="40" y="48" width="140" height="20" rx="4" fill="#e2e2e2"/>
  <rect x="40" y="120" width="180" height="16" rx="4" fill="#000000"/>
  <rect x="40" y="170" width="180" height="14" rx="4" fill="#d8d8d8"/>
  <rect x="40" y="204" width="180" height="14" rx="4" fill="#d8d8d8"/>
  <rect x="40" y="238" width="180" height="14" rx="4" fill="#d8d8d8"/>
  <rect x="40" y="272" width="180" height="14" rx="4" fill="#d8d8d8"/>
  <rect x="40" y="306" width="180" height="14" rx="4" fill="#d8d8d8"/>
  <rect x="320" y="60" width="360" height="28" rx="4" fill="#000000"/>
  <rect x="320" y="130" width="1240" height="220" rx="22" fill="#ffffff" stroke="#f0f0f0" stroke-width="2"/>
  <rect x="320" y="380" width="380" height="300" rx="22" fill="#ffffff" stroke="#f0f0f0" stroke-width="2"/>
  <rect x="720" y="380" width="380" height="300" rx="22" fill="#ffffff" stroke="#f0f0f0" stroke-width="2"/>
  <rect x="1120" y="380" width="440" height="300" rx="22" fill="#ffffff" stroke="#f0f0f0" stroke-width="2"/>
  <circle cx="510" cy="530" r="90" fill="none" stroke="#00c896" stroke-width="22"/>
  <circle cx="510" cy="530" r="90" fill="none" stroke="#ff2d78" stroke-width="22" stroke-dasharray="60 500"/>
</svg>
